<svg aria-hidden="true" style="position: absolute; width: 0; height: 0; overflow: hidden;" version="1.1" xmlns="http://www.w3.org/2000/svg" xmlns:xlink="http://www.w3.org/1999/xlink">
  <defs>
    <symbol id="icon-burger-menu" viewBox="0 0 32 32">
      <path d="M4.799 8.001c0-0.424 0.169-0.831 0.469-1.131s0.707-0.469 1.131-0.469h19.2c0.424 0 0.831 0.169 1.131 0.469s0.469 0.707 0.469 1.131-0.169 0.831-0.469 1.131c-0.3 0.3-0.707 0.469-1.131 0.469h-19.2c-0.424 0-0.831-0.169-1.131-0.469s-0.469-0.707-0.469-1.131z"></path>
      <path d="M4.799 16.001c0-0.424 0.169-0.831 0.469-1.131s0.707-0.469 1.131-0.469h19.2c0.424 0 0.831 0.169 1.131 0.469s0.469 0.707 0.469 1.131c0 0.424-0.169 0.831-0.469 1.131s-0.707 0.469-1.131 0.469h-19.2c-0.424 0-0.831-0.169-1.131-0.469s-0.469-0.707-0.469-1.131z"></path>
      <path d="M4.799 24.001c0-0.424 0.169-0.831 0.469-1.131s0.707-0.469 1.131-0.469h19.2c0.424 0 0.831 0.169 1.131 0.469s0.469 0.707 0.469 1.131c0 0.424-0.169 0.831-0.469 1.131s-0.707 0.469-1.131 0.469h-19.2c-0.424 0-0.831-0.169-1.131-0.469s-0.469-0.707-0.469-1.131z"></path>
    </symbol>
    <symbol id="icon-triangle" viewBox="0 0 27 32">
      <path d="M25.976 14.68c1.205 0.692 1.205 2.43 0 3.122l-22.46 12.892c-1.2 0.689-2.696-0.178-2.696-1.561v-25.783c0-1.384 1.496-2.25 2.696-1.561l22.46 12.891z"></path>
    </symbol>
  </defs>
</svg>